<svg width="15" height="15" viewBox="0 0 15 15" fill="none" xmlns="http://www.w3.org/2000/svg">
<mask id="path-1-inside-1_26_1457" fill="white">
<path fill-rule="evenodd" clip-rule="evenodd" d="M0.79739 6.32667C0.296884 5.66509 0 4.8409 0 3.94737C0 1.7673 1.7673 0 3.94737 0C5.23863 0 6.38508 0.620008 7.10526 1.57856C7.82544 0.620008 8.9719 0 10.2632 0C12.4432 0 14.2105 1.7673 14.2105 3.94737C14.2105 4.8409 13.9136 5.66508 13.4131 6.32667L7.10526 15L0.79739 6.32667Z"/>
</mask>
<path d="M0.79739 6.32667L1.60613 5.7385L1.60058 5.73087L1.59489 5.72335L0.79739 6.32667ZM7.10526 1.57856L6.30577 2.17924L7.10526 3.24336L7.90476 2.17924L7.10526 1.57856ZM13.4131 6.32667L12.6156 5.72335L12.61 5.73087L12.6044 5.7385L13.4131 6.32667ZM7.10526 15L6.29653 15.5882L7.10526 16.7002L7.914 15.5882L7.10526 15ZM1.59489 5.72335C1.22122 5.22943 1 4.61567 1 3.94737H-1C-1 5.06613 -0.627455 6.10075 -0.000106001 6.93L1.59489 5.72335ZM1 3.94737C1 2.31958 2.31958 1 3.94737 1V-1C1.21501 -1 -1 1.21501 -1 3.94737H1ZM3.94737 1C4.91087 1 5.76634 1.46126 6.30577 2.17924L7.90476 0.977888C7.00382 -0.221246 5.5664 -1 3.94737 -1V1ZM7.90476 2.17924C8.44419 1.46126 9.29966 1 10.2632 1V-1C8.64413 -1 7.2067 -0.221246 6.30577 0.977888L7.90476 2.17924ZM10.2632 1C11.8909 1 13.2105 2.31958 13.2105 3.94737H15.2105C15.2105 1.21501 12.9955 -1 10.2632 -1V1ZM13.2105 3.94737C13.2105 4.61567 12.9893 5.22943 12.6156 5.72335L14.2106 6.92999C14.838 6.10074 15.2105 5.06613 15.2105 3.94737H13.2105ZM12.6044 5.7385L6.29653 14.4118L7.914 15.5882L14.2219 6.91484L12.6044 5.7385ZM7.914 14.4118L1.60613 5.7385L-0.0113463 6.91485L6.29653 15.5882L7.914 14.4118Z" fill="#A4A4A4" mask="url(#path-1-inside-1_26_1457)"/>
</svg>
