<svg width="14" height="15" viewBox="0 0 14 15" fill="none" xmlns="http://www.w3.org/2000/svg">
<path fill-rule="evenodd" clip-rule="evenodd" d="M0 10.3867V10.3816V0.870553V0.865564C0 0.387532 0.387521 1.14441e-05 0.865552 1.14441e-05H0.86604L0.870552 0V1.14441e-05L13.0583 0L13.0628 1.14441e-05H13.0633C13.5413 1.14441e-05 13.9288 0.387532 13.9288 0.865564L13.9288 0.870552V10.3816V10.3867C13.9288 10.8647 13.5413 11.2522 13.0633 11.2522H4.85537L2.93155 14.5652C2.69046 14.9804 2.15748 15.1232 1.7411 14.8842L1.74158 14.8834L1.7411 14.8835L1.7411 11.2522H0.865552C0.387521 11.2522 0 10.8647 0 10.3867ZM0.870552 0.865564H13.0583V10.3867H4.35276L2.61165 13.385V11.2522V10.3867H1.7411H0.870552V0.865564ZM12.1877 2.59668H1.7411V3.46223H12.1877V2.59668ZM12.1877 5.19329H1.7411V6.05885H12.1877V5.19329ZM1.7411 7.78997H12.1877V8.65553H1.7411V7.78997Z" fill="#A4A4A4"/>
</svg>
