<svg width="18" height="20" viewBox="0 0 18 20" fill="none" xmlns="http://www.w3.org/2000/svg">
<path fill-rule="evenodd" clip-rule="evenodd" d="M3.74308 13.9399L3.18109 12.8698H2V2H15.3913V12.8698H7.36117H6.15251L5.59052 13.9399L4.6668 15.6987L3.74308 13.9399ZM4.6668 20L5.79632 17.8493L7.36117 14.8698H16.3913C16.9436 14.8698 17.3913 14.4221 17.3913 13.8698V1C17.3913 0.447715 16.9436 0 16.3913 0H1C0.447715 0 0 0.447716 0 1V13.8698C0 14.4221 0.447715 14.8698 1 14.8698H1.97243L3.53727 17.8493L4.6668 20ZM14.4928 4.03416H2.89856V6.05129H14.4928V4.03416ZM2.89856 7.05996H14.4928V9.0771H2.89856V7.05996ZM14.4928 10.0858H2.89856V12.1029H14.4928V10.0858Z" fill="#015693"/>
</svg>
