<svg width="12" height="12" viewBox="0 0 12 12" fill="none" xmlns="http://www.w3.org/2000/svg">
<path fill-rule="evenodd" clip-rule="evenodd" d="M7.50795 9.20486C6.76249 9.65357 5.8893 9.91165 4.95583 9.91165C2.2188 9.91165 0 7.69285 0 4.95583C0 2.2188 2.2188 0 4.95583 0C7.69285 0 9.91165 2.2188 9.91165 4.95583C9.91165 6.24973 9.41578 7.42782 8.60372 8.31043L11.0847 10.7914C11.3611 11.0679 11.3611 11.5161 11.0847 11.7926C10.8082 12.0691 10.3599 12.0691 10.0834 11.7926L7.58036 9.28953C7.55364 9.26281 7.5295 9.23448 7.50795 9.20486ZM8.49571 4.95584C8.49571 6.91086 6.91085 8.49572 4.95583 8.49572C3.00081 8.49572 1.41595 6.91086 1.41595 4.95584C1.41595 3.00082 3.00081 1.41597 4.95583 1.41597C6.91085 1.41597 8.49571 3.00082 8.49571 4.95584Z" fill="white"/>
</svg>
