<svg width="20" height="20" viewBox="0 0 20 20" fill="none" xmlns="http://www.w3.org/2000/svg">
<path fill-rule="evenodd" clip-rule="evenodd" d="M10 20C15.5228 20 20 15.5228 20 10C20 4.47715 15.5228 0 10 0C4.47715 0 0 4.47715 0 10C0 15.5228 4.47715 20 10 20ZM10.3158 9.89474C12.4959 9.89474 14.2632 8.12744 14.2632 5.94737C14.2632 3.7673 12.4959 2 10.3158 2C8.13572 2 6.36842 3.7673 6.36842 5.94737C6.36842 8.12744 8.13572 9.89474 10.3158 9.89474ZM16.6316 16V13.8421C16.6316 12.098 13.8039 10.6842 10.3158 10.6842C6.82768 10.6842 4 12.098 4 13.8421V16C4 16.5523 4.44771 17 5 17H15.6316C16.1839 17 16.6316 16.5523 16.6316 16Z" fill="#015693"/>
</svg>
