<svg width="15" height="15" viewBox="0 0 15 15" fill="none" xmlns="http://www.w3.org/2000/svg">
<path fill-rule="evenodd" clip-rule="evenodd" d="M7.5 15C11.6421 15 15 11.6421 15 7.5C15 3.35786 11.6421 0 7.5 0C3.35786 0 0 3.35786 0 7.5C0 11.6421 3.35786 15 7.5 15ZM7.73684 7.42105C9.37189 7.42105 10.6974 6.09558 10.6974 4.46053C10.6974 2.82547 9.37189 1.5 7.73684 1.5C6.10179 1.5 4.77631 2.82547 4.77631 4.46053C4.77631 6.09558 6.10179 7.42105 7.73684 7.42105ZM7.73684 8.01315C5.12076 8.01315 3 9.07353 3 10.3816V11.75C3 12.3023 3.44771 12.75 4 12.75H11.4737C12.026 12.75 12.4737 12.3023 12.4737 11.75V10.3816C12.4737 9.07353 10.3529 8.01315 7.73684 8.01315Z" fill="#B0B0B0"/>
</svg>
