<?xml version="1.0" standalone="no"?>
<!DOCTYPE svg PUBLIC "-//W3C//DTD SVG 20010904//EN"
 "http://www.w3.org/TR/2001/REC-SVG-20010904/DTD/svg10.dtd">
<svg version="1.0" xmlns="http://www.w3.org/2000/svg"
 width="1280.000000pt" height="1254.000000pt" viewBox="0 0 1280.000000 1254.000000"
 preserveAspectRatio="xMidYMid meet">
<metadata>
Created by potrace 1.15, written by Peter Selinger 2001-2017
</metadata>
<g transform="translate(0.000000,1254.000000) scale(0.100000,-0.100000)"
fill="#000000" stroke="none">
<path d="M5120 11383 c-701 -635 -2138 -1936 -3192 -2890 -1055 -954 -1918
-1736 -1918 -1739 0 -2 201 -4 448 -3 l447 0 1411 1277 c775 702 2010 1820
2744 2485 733 664 1336 1207 1340 1207 6 0 1759 -1585 4505 -4072 l990 -897
450 0 450 -1 -45 44 c-57 56 -6349 5746 -6353 5745 -1 0 -576 -521 -1277
-1156z"/>
<path d="M5760 10683 c-349 -316 -1471 -1332 -2492 -2256 l-1858 -1681 0
-3373 0 -3373 1660 0 1660 0 0 2615 0 2615 1670 0 1670 0 0 -2615 0 -2615
1660 0 1660 0 0 3374 0 3373 -2491 2254 c-1370 1240 -2494 2255 -2498 2256 -3
1 -292 -257 -641 -574z"/>
<path d="M5380 2285 l0 -2285 1020 0 1020 0 0 2285 0 2285 -1020 0 -1020 0 0
-2285z"/>
</g>
</svg>
